/* XPM */
static char *_23265a40e974ec1c9578b177e2a3f16[] = {
/* columns rows colors chars-per-pixel */
"16 16 143 2 ",
"   c black",
".  c #010000",
"X  c #010100",
"o  c #010101",
"O  c #020100",
"+  c #030301",
"@  c #040301",
"#  c #050401",
"$  c #060502",
"%  c #090803",
"&  c #0F0C05",
"*  c #0B0A09",
"=  c #100F0A",
"-  c #181408",
";  c #1A1509",
":  c #1B1609",
">  c #1C1709",
",  c #1D1809",
"<  c #1D180A",
"1  c #1E180A",
"2  c #1E190A",
"3  c #201B0B",
"4  c #241E0C",
"5  c #251F0C",
"6  c #251E0D",
"7  c #261F0D",
"8  c #27200D",
"9  c #27210D",
"0  c #28210E",
"q  c #2A230E",
"w  c #362D13",
"e  c #3A3014",
"r  c #3B3014",
"t  c #3C3215",
"y  c #3D3315",
"u  c #3C341D",
"i  c #3C3A34",
"p  c #433717",
"a  c #443817",
"s  c #493C19",
"d  c #51441C",
"f  c #54451D",
"g  c #54461D",
"h  c #58491E",
"j  c #5D4D20",
"k  c #5F4E21",
"l  c #5E4E24",
"z  c #635222",
"x  c #645323",
"c  c #655423",
"v  c #675523",
"b  c #685624",
"n  c #695724",
"m  c #6B5825",
"M  c #6C5925",
"N  c #735F28",
"B  c #756128",
"V  c #766229",
"C  c #78642A",
"Z  c #79642A",
"A  c #79652A",
"S  c #79652B",
"D  c #7B662A",
"F  c #7C672B",
"G  c #7D682A",
"H  c #7D692B",
"J  c #7E692B",
"K  c #7F692C",
"L  c #806A2C",
"P  c #816B2D",
"I  c #826C2D",
"U  c #846D2E",
"Y  c #856E2E",
"T  c #866F2E",
"R  c #876F2F",
"E  c #86702F",
"W  c #87702F",
"Q  c #897130",
"!  c #8A7230",
"~  c #8B7430",
"^  c #8D7430",
"/  c #8C7431",
"(  c #8D7531",
")  c #8E7431",
"_  c #8E7631",
"`  c #8F7631",
"'  c #8F7733",
"]  c #8A7437",
"[  c #907832",
"{  c #917832",
"}  c #927933",
"|  c #937A33",
" . c #967E34",
".. c #987E35",
"X. c #987F35",
"o. c #937D41",
"O. c #9D8237",
"+. c #9F8437",
"@. c #A18538",
"#. c #A08638",
"$. c #A28638",
"%. c #A38638",
"&. c #A48839",
"*. c #A4883A",
"=. c #A98A39",
"-. c #A8893B",
";. c #AB8D3B",
":. c #AD8F3C",
">. c #AD903C",
",. c #AE903D",
"<. c #AE913D",
"1. c #B1923D",
"2. c #B1933E",
"3. c #B1933F",
"4. c #B4953F",
"5. c #AC9041",
"6. c #A99049",
"7. c #B19545",
"8. c #B09446",
"9. c #B89A43",
"0. c #BE9D43",
"q. c #B79A48",
"w. c #BA9D4B",
"e. c #B29B5B",
"r. c #B5A167",
"t. c #BEAB78",
"y. c #BFAE7F",
"u. c #C29F43",
"i. c #C2A043",
"p. c #C5A344",
"a. c #CBB579",
"s. c #9F9988",
"d. c #BCAD81",
"f. c #CCBE99",
"g. c #CBBF9C",
"h. c #D2C7A6",
"j. c #DBCFAD",
"k. c #D9CEB1",
"l. c #D4CDB8",
"z. c #DDD3B8",
"x. c #E0D4B2",
"c. c #E0D5B5",
"v. c None",
/* pixels */
"v.v.v.v.v.u.:.#.+.%.>.v.v.v.v.v.",
"v.v.v.u.X.~ | X.X.| E Q 2.v.v.v.",
"v.v.2.A J E E E R R R J B >.v.v.",
"v.4.r : 1 > 1 r p > , , > w -.v.",
"v.x . . . . : N ] = . . . . h v.",
"-.1 . . . 2 F 8.c.s.* . . . : ^ ",
"R # . . q B I 6.d.e.l # . . . M ",
"F . . 5 M R #.a.c.w.5.u . . . h ",
"P . 9 j M ~ *.t.g.h.z.l.i . . v ",
"~ # 4 v V ^ 8.j.j.g.y.r.o.: # A ",
"#.: % r A *.<.q.9.0.p.i.2.z : ^ ",
"v.d . : M <.;.O.E b a 5 & # s v.",
"v.E 0 1 f f r 9 1 : > 1 : 5 F v.",
"v.v.F b F R R R R R R F v J v.v.",
"v.v.v. .P I | X. .^ P A ^ v.v.v.",
"v.v.v.v.v.) A A A F ' v.v.v.v.v."
};
