/* XPM */
static char *ab60b7e20f204a4bca3e5eeb1534b9f1[] = {
/* columns rows colors chars-per-pixel */
"32 32 108 2 ",
"   c #000000",
".  c #080702",
"X  c #0D0B04",
"o  c #110E06",
"O  c #151207",
"+  c #14120C",
"@  c #1A1509",
"#  c #1D180B",
"$  c #181815",
"%  c #221C0B",
"&  c #2A230E",
"*  c #2E2610",
"=  c #21201D",
"-  c #332A11",
";  c #382E13",
":  c #3B3114",
">  c #3B331C",
",  c #2D2B24",
"<  c #423617",
"1  c #443817",
"2  c #463A18",
"3  c #4A3D1A",
"4  c #433B23",
"5  c #4D401A",
"6  c #53451D",
"7  c #57481E",
"8  c #5A4A1F",
"9  c #5D4D20",
"0  c #604F21",
"q  c #635222",
"w  c #695724",
"e  c #6D5A26",
"r  c #715D27",
"t  c #725F2B",
"y  c #75612A",
"u  c #7A652A",
"i  c #7E692C",
"p  c #826B2D",
"a  c #87702F",
"s  c #88712F",
"d  c #877132",
"f  c #8E7632",
"g  c #8F7831",
"h  c #907732",
"j  c #947B33",
"k  c #997E35",
"l  c #957D3B",
"z  c #967F40",
"x  c #9D8237",
"c  c #9D8439",
"v  c #A08437",
"b  c #A28639",
"n  c #A6893A",
"m  c #AB8E3B",
"M  c #AF913D",
"N  c #B2943E",
"B  c #99864F",
"V  c #9B8955",
"C  c #9E8D5C",
"Z  c #AA8F42",
"A  c #AE9142",
"S  c #A9904A",
"D  c #B49642",
"F  c #BC9C42",
"G  c #B99C4C",
"H  c #B19A5C",
"J  c #9F9169",
"K  c #A59465",
"L  c #AB9D76",
"P  c #B4A67E",
"I  c #C09F43",
"U  c #C4A244",
"Y  c #C9A646",
"T  c #CCA947",
"R  c #C0A049",
"E  c #CDAB49",
"W  c #D1AD49",
"Q  c #D6B14A",
"!  c #CAAB54",
"~  c #D0B97C",
"^  c #B6A881",
"/  c #AFAA9C",
"(  c #BFB9A8",
")  c #C1B082",
"_  c #C9B784",
"`  c #C6B995",
"'  c #C7BB9B",
"]  c #C0BAA9",
"[  c #D6CAA7",
"{  c #DDCDA0",
"}  c #D0C7AE",
"|  c #D5CAAB",
" . c #DED0A9",
".. c #D9CFB4",
"X. c #DCD0B2",
"o. c #E2D4AB",
"O. c #E3D9BE",
"+. c #E6DCC1",
"@. c #E8DEC3",
"#. c #E7DFC9",
"$. c #EDE2C4",
"%. c #EFE6CF",
"&. c #F2E8CD",
"*. c #EEE7D3",
"=. c #F2EBD7",
"-. c #F4EDDB",
";. c #F7F0DD",
":. c None",
/* pixels */
":.:.:.:.:.:.:.:.:.:.:.:.Q Q Q W T W T Y :.:.:.:.:.:.:.:.:.:.:.:.",
":.:.:.:.:.:.:.:.:.Q Q U c p y e e e u f M I U :.:.:.:.:.:.:.:.:.",
":.:.:.:.:.:.:.:.Q m y e a j x c c x j a e q j F :.:.:.:.:.:.:.:.",
":.:.:.:.:.:.Q F r y j c x x x x x x x x c j r q m W :.:.:.:.:.:.",
":.:.:.:.:.Q x 0 p h h h f f h h g f g g h h h p 9 j W :.:.:.:.:.",
":.:.:.:.W h 8 i p p p i p p p p p p p p i p p p i 9 s W :.:.:.:.",
":.:.:.W j % - - - ; - - - - - ; : - - - ; - - - - - @ f Y :.:.:.",
":.:.:.M #                   . q i .                   O b :.:.:.",
":.:.Y 2                   . 6 M Q 9                     : N :.:.",
":.U j .                 o - 3 u d t #                   . i M :.",
":.F 1                 O r s k U { $.} ,                   - n :.",
":.n O               . 6 s f N ! %.;.;.( $                 o s :.",
"I p               % e q w a b S ^ L J C 4 .                 q x ",
"I 8             O w s h p j b H ) _ R U U q                 < k ",
"U <           % 6 w a f f M F o.;.$.! Y Y I 1               * j ",
"Y ;         @ 6 y p u a k M G +.#.[ A b j l y +             & j ",
"T ;       * 3 5 q i s p h j l V V C K P ` | O.] =           & b ",
"W 2     @ 5 s q 9 r p k D F ~ @.%.=.-.;.;.-.-.-./ +         ; n ",
"T 8     % - 0 h w w i x M A  .-.=.=.=.*.#...' P K >         6 M ",
"U a     X * < e h e u n M D X...' ^ K B z c b M F F 5       y m ",
":.n o     @ : 3 u h s v v b Z A A F I U Y Y Y Y Y Y F ;   X j :.",
":.N ;       & 1 7 p D F I I F F F F I U Y T T Y D x u :   - b :.",
":.M i .     X ; 3 i M M M N N F F I F M j r 3 * O       . e k :.",
":.:.b -       @ 3 k M N N M c a q 1 % o                 * j :.:.",
":.:.b p o       1 j u 9 ; % X                         o u f :.:.",
":.:.:.x q @ - - ; ; - - - * - * - * - - - - - * - - @ 9 j :.:.:.",
":.:.:.:.j 9 6 i p p p i p p p p p i p p i p p p i 6 0 j :.:.:.:.",
":.:.:.:.:.x r 6 a f f j f f f f f f h f f f f a 6 e x :.:.:.:.:.",
":.:.:.:.:.:.n j 9 r j c x x x x c x x x c j r 6 s x :.:.:.:.:.:.",
":.:.:.:.:.:.:.n M a 9 w a j v b b x j a q 9 i v x :.:.:.:.:.:.:.",
":.:.:.:.:.:.:.:.:.n n s e 8 6 6 6 7 9 e f b b :.:.:.:.:.:.:.:.:.",
":.:.:.:.:.:.:.:.:.:.:.:.j j f f j j x x :.:.:.:.:.:.:.:.:.:.:.:."
};
