/* XPM */
static char *e73e157b0d664fd0ed78ea988d18f928[] = {
/* columns rows colors chars-per-pixel */
"64 64 186 2 ",
"   c #010100",
".  c #090703",
"X  c #0C0A04",
"o  c #0B0B0B",
"O  c #110E06",
"+  c #151107",
"@  c #15120A",
"#  c #1A1509",
"$  c #1E190A",
"%  c #141414",
"&  c #191711",
"*  c #1B1B1B",
"=  c #231D0C",
"-  c #221F17",
";  c #26200D",
":  c #2B240F",
">  c #262217",
",  c #2F2610",
"<  c #24221A",
"1  c #342B12",
"2  c #382F13",
"3  c #3C3215",
"4  c #3B331E",
"5  c #252524",
"6  c #2B2B2B",
"7  c #3D3623",
"8  c #35332D",
"9  c #38362F",
"0  c #3C382D",
"q  c #343434",
"w  c #3B3A3A",
"e  c #423617",
"r  c #443817",
"t  c #463A18",
"y  c #4B3E1A",
"u  c #433B24",
"i  c #4E411B",
"p  c #53451D",
"a  c #57481E",
"s  c #594A1F",
"d  c #5D4D21",
"f  c #604F21",
"g  c #635222",
"h  c #685624",
"j  c #6C5A25",
"k  c #67572C",
"l  c #6C5B2A",
"z  c #715D27",
"x  c #725F28",
"c  c #766129",
"v  c #7B662B",
"b  c #7E682B",
"n  c #716134",
"m  c #786632",
"M  c #7C6833",
"N  c #76673D",
"B  c #444444",
"V  c #4B4B4B",
"C  c #544F41",
"Z  c #535048",
"A  c #535353",
"S  c #5B5B5B",
"D  c #7C6C40",
"F  c #766D56",
"G  c gray39",
"H  c #686764",
"J  c #6A6A6A",
"K  c #726E61",
"L  c #797467",
"P  c #737373",
"I  c #7C7C7C",
"U  c #846D2E",
"Y  c #87702F",
"T  c #88712F",
"R  c #836E33",
"E  c #8C7431",
"W  c #82703C",
"Q  c #8C7639",
"!  c #907732",
"~  c #947A33",
"^  c #997F35",
"/  c #927B3D",
"(  c #867443",
")  c #8B7946",
"_  c #8B7A4B",
"`  c #9C8136",
"'  c #99803A",
"]  c #A08437",
"[  c #A18638",
"{  c #A5893A",
"}  c #AA8D3B",
"|  c #AE903D",
" . c #B3943E",
".. c #B8993F",
"X. c #978146",
"o. c #9C8444",
"O. c #98844B",
"+. c #948457",
"@. c #9B8A5D",
"#. c #A68D49",
"$. c #B69740",
"%. c #B79840",
"&. c #BB9B41",
"*. c #A38F57",
"=. c #A3915E",
"-. c #B99E51",
";. c #BFA355",
":. c #A08F61",
">. c #A59360",
",. c #A9996D",
"<. c #AC9E76",
"1. c #AD9F78",
"2. c #B2A06C",
"3. c #B6A471",
"4. c #B5A57A",
"5. c #BFAD7C",
"6. c #C09F43",
"7. c #C4A244",
"8. c #C9A646",
"9. c #CCA947",
"0. c #C4A44B",
"q. c #C8A648",
"w. c #CEAB48",
"e. c #D2AD49",
"r. c #D6B14A",
"t. c #DAB54C",
"y. c #DEB84E",
"u. c #C4A551",
"i. c #E1BA4E",
"p. c #E6BE50",
"a. c #CBB36F",
"s. c #D4B560",
"d. c #CAB474",
"f. c #858585",
"g. c #8C8C8C",
"h. c #939393",
"j. c #9B9B9B",
"k. c #A29B89",
"l. c #BBAF8E",
"z. c #BDB08E",
"x. c #A4A4A4",
"c. c #ACACAC",
"v. c #B4B4B4",
"b. c #BABABA",
"n. c #C3B283",
"m. c #C2B595",
"M. c #C6B996",
"N. c #DCC481",
"B. c #DEC88A",
"V. c #D6C494",
"C. c #D2C39A",
"Z. c #DBCB9E",
"A. c #D3C9AF",
"S. c #DFD2AF",
"D. c #D9CEB0",
"F. c #E5D3A3",
"G. c #E3D4A8",
"H. c #E2D6B5",
"J. c #E6D9B6",
"K. c #EADBB2",
"L. c #E0D6BE",
"P. c #EADDBA",
"I. c #ECE0BF",
"U. c #C5C5C5",
"Y. c #CACACA",
"T. c #DCD6C3",
"R. c LightGray",
"E. c #E4DBC3",
"W. c #E9DEC1",
"Q. c #EDE3C6",
"!. c #E7E1CF",
"~. c #ECE3CD",
"^. c #F2E7CB",
"/. c #F3E8CC",
"(. c #ECE5D1",
"). c #EFE8D5",
"_. c #E4E3DE",
"`. c #F3EBD4",
"'. c #F4EDDB",
"]. c #F7F0DD",
"[. c #F8F0DD",
"{. c #E3E3E3",
"}. c #EDEAE4",
"|. c #EBEBEB",
" X c #F3F3F3",
".X c None",
/* pixels */
".X.X.X.X.X.X.X.X.X.X.X.X.X.X.X.X.X.X.X.X.X.X.X.X.X.X.X9.w.w.w.e.e.9.8.8.7..X.X.X.X.X.X.X.X.X.X.X.X.X.X.X.X.X.X.X.X.X.X.X.X.X.X.X",
".X.X.X.X.X.X.X.X.X.X.X.X.X.X.X.X.X.X.X.X.X.X.Xw.t.t.y.y.y.y.y.r.r.r.r.e.e.e.w.9.7..X.X.X.X.X.X.X.X.X.X.X.X.X.X.X.X.X.X.X.X.X.X.X",
".X.X.X.X.X.X.X.X.X.X.X.X.X.X.X.X.X.X.X.Xe.t.i.i.y.r.7. .' T b c c v U ` {  .7.8.9.8.7.7..X.X.X.X.X.X.X.X.X.X.X.X.X.X.X.X.X.X.X.X",
".X.X.X.X.X.X.X.X.X.X.X.X.X.X.X.X.X.Xr.y.i.y.9.[ z y 2 1 3 i p s s p i 3 2 1 r h !  .7.7.7.7..X.X.X.X.X.X.X.X.X.X.X.X.X.X.X.X.X.X",
".X.X.X.X.X.X.X.X.X.X.X.X.X.X.X.Xe.y.i.r.| j 3 3 s v ~ ` [ [ [ [ [ [ [ [ ` ~ b s 2 1 f ~ ..7.7.7..X.X.X.X.X.X.X.X.X.X.X.X.X.X.X.X",
".X.X.X.X.X.X.X.X.X.X.X.X.X.X9.t.p.r.{ p 2 s E ` [ [ [ [ [ [ [ [ { [ [ [ [ [ [ [ ` Y s , r E ..7.8.&..X.X.X.X.X.X.X.X.X.X.X.X.X.X",
".X.X.X.X.X.X.X.X.X.X.X.X.Xe.i.t. .s 1 h ~ ] ` [ [ ] [ ] [ ] [ ] [ [ ] ] ] ] [ [ [ [ ` ~ h , y ` 8.9.7..X.X.X.X.X.X.X.X.X.X.X.X.X",
".X.X.X.X.X.X.X.X.X.X.X.Xt.y.w.U 1 s E ` ` ` ` ` ` ` ` ` ' ' ` ` ' ` ` ` ` ` ' ' ` ` ` ` ` E a : z 7.r.e..X.X.X.X.X.X.X.X.X.X.X.X",
".X.X.X.X.X.X.X.X.X.X7.t.y.%.p 2 v ! ~ ~ ~ ~ ~ ~ ~ ! ~ ~ ~ ~ ~ ! ' ` ! ` ~ ~ ! ~ ~ ~ ~ ~ ! ~ ~ v 2 r  .t.t.%..X.X.X.X.X.X.X.X.X.X",
".X.X.X.X.X.X.X.X.X7.t.t.} 3 y U E E E E E E E E E E E E E E E E Y Y Y Y E E E E E E E E E E E E U y , [ i.t.%..X.X.X.X.X.X.X.X.X",
".X.X.X.X.X.X.X.X8.t.t.^ 1 s U U Y U U U U U U U Y U U U Y U U U Y Y Y b U U U U U U U U U U U U U U a = ~ t.t....X.X.X.X.X.X.X.X",
".X.X.X.X.X.X.X.Xr.t.^ , s v v U b b b b b b b b b b b b b b b b v b b b b b b b b b b b b b b b U v U s = ! t.r..X.X.X.X.X.X.X.X",
".X.X.X.X.X.X.Xe.t.[ ; e g g g g g g g g f f g g g g g f f g f g g f g g g g g g g g g g g g g g f f g g r $ ` r.9..X.X.X.X.X.X.X",
".X.X.X.X.X.Xw.t. .1       . .     .   . . .   .   . .   . .   . . .   . .     .   .   . .   .     . .       = } r.7..X.X.X.X.X.X",
".X.X.X.X.X7.r.7.i w B V 5   q %       B V w o       % S V o     , r 2 .       ; $       1 r 3 O       O p y . 2 &.9. ..X.X.X.X.X",
".X.X.X.X.Xe.w.z @ R. X|.I . U.q     o R.|.|.j.o   & b. X Xf.     .e.t.d       ` Y     . 7.r.t.` .   O { p.p.Y . g 7.7..X.X.X.X.X",
".X.X.X.X8.e.[ $ o U.B 5 % . U.q     o R.w w R.V   J R.B G {.6 .  .r g }     + w.7..   . %.3 1 7.y   s 9.e p e.1 + ! 7. ..X.X.X.X",
".X.X.X.Xw.7.y   o U.w % o o U.w     o Y.5   f.g.. v.G     x.P   | 1 e | .   e 7.7.,   . %.:   z E   ] h     ! c   2  .6..X.X.X.X",
".X.X.X8.9.! O   o Y.{.{.J o U.q     o Y.5   S x.o U.q     P h..  .~ $.z     U U ~ j   . &.,   y { .  .2     g ~   . v %. ..X.X.X",
".X.X.Xw.&.r     o Y.P A 6 o U.q     % Y.5   G x.o U.q     I g.   .6.r.1   . %.i g | . . %.,   p { .  .3     h E     , {  ..X.X.X",
".X.X7.q.~ O     o U.6     . U.w     o Y.5 o x.I   x.I   o b.H e  .3 U c   , i.t.t.t.$ . %.,   E U   ! U   . { h     . v  .} .X.X",
".X.X7.&.d       o Y.I G q o U.x.f.S o R.P f.{.q   A |.I h._.N 9.t.2 y }   j  .a d %.i . &.z c t.1   e r.c U e.=       e { | .X.X",
".X.X7.} =       o b.|.|.I o b.|.|.j.% U.|.{.P     . g. X}.,.] t.t.p =  .+ ~ p     j U .  .t.r.z .     v i.t.d         # E { .X.X",
".X7.7.T .         * * * o   % * * %   % * %         . 9 ( T ..t.t.&., +   + .     . +   + # +         . = =             j [ [ .X",
".X7.&.s                                               O e z { { } ~ p                                                   e ~ { .X",
".X7.%.1                                           $ g i e i p s l M l 3 .                                               = E [ .X",
".X7.} #                                         ; b E T U &.8.s.P.Q.^.Q.F                                               X U ` .X",
"%.9.~ X                                       , U ! E E ` 7.9.N.[.[.[.[.~.C                                             . j ~ ^ ",
"6.w.U .                                     . f E E E E | 6.7.F.].].[.[.[.T.9                                             d ~ ` ",
"7.e.c                                     , 1 1 s v E ! %.&.0.Q.'.`.`.(.Q.L.k.o                                           i ! ` ",
"7.r.h # , ; =                           r Y E z g g j E [ ^ ^ @.+._ D n n R d $                                   o B q . y ^ ` ",
"7.t.g 1 U [ ` =                       r v E ! ! Y v v v U U R Q / o.#.| $.&.q.7.z                                 f.H I G r ` [ ",
"8.t.g 2 E ~ ! O                     = h v E ! ! E T ] &.0.q.B.Q./.`.K.w.w.w.q.9.7.p                             o j.A H h.y [ [ ",
"8.i.h ; + = 1                   X 2 e a z U ! ! E E { $.$.&.J.'.].].K.0.q.8.8.8.7...1                             V V B 6 p } { ",
"7.i.c p ! { ` =               . r c U x h x E ! E ! |  .$.;.~.'.'.'.G.7.7.7.8.7.7.7.] #                         o P h.x.V g $.{ ",
"6.i.U d 3 g s ,             X 2 i f v E U c z E E ` |  . .d.'.'.'.).V.$. .{ ` ! U E c $                           q h.J % c &.` ",
"%.i.` , # X , $             = e p s h v Y T U z U { } } { 3.l.<.@._ M z z z m W _ >.5.l.L .                     o g.x.g.w E &.` ",
".Xr. .= b T U j         # f g y t a g z U T E T U E Y R U R E Q / =.2.n.C.S.W./.'.'.].'.).K                       . % 6 < ` &..X",
".Xe.8.3 T $ 3 j       O 1 z ! U p i f j c U Y ~ { {  .&.u.Z.J.W.`.'.].'.'.].'.'.'.'.'.'.].!.Z                   A x.x.h.7  .%..X",
".X7.9.p e U c = .   X ; 1 e v ^ U p s g z U T ~ 6.6.6.%.a.'.'.'.'.'.'.'.'.'.'.'.'.'.].'.'.'.T.8                 o J c.w i %.| .X",
".X%.9.U X 2 v ` y   O ; 1 2 y Y ^ U p g z v U ^ } | | | V.'.'.'.'.'.'.'.'.'.'.'.'.).E.D.M.4.>.u               % q * w S c $.` .X",
".X.X8.{ 2 ^ j t x     # : 2 3 p E ] U s h x U { } | | $.H.'.'.'.'.'.'.!.E.A.m.1.@.( m x z c ^ ! i .           % j.b.f.0 ` $..X.X",
".X.X6.%.y x O O 2 #   . ; 1 3 r f E ^ v f z E } | |  .-.!.!.E.A.m.1.@.( R v U U ! ] | &.8.w.w.w.7.h         o P g.b.A t { } .X.X",
".X.X .&.U # 1 Y ~ c     O , 2 e y j E ` c h ] { { ` ^ o.=.O.Q E ! ~ ^ } $.6.9.w.e.e.9.9.8.7.8.7.7.6.y       6 5 h.I 5 v { ~ .X.X",
".X.X.X&.| 3 ~ y a p +     # 1 3 t p x ! ` E ~ ^ ^ ` ` { |  .6.9.w.e.w.9.8.6.6.8.0.8.8.9.8.9.9.9.w.e.&.1   5 I 6 o V u ~ { .X.X.X",
".X.X.X . .x p 1 X : t     . , 2 r y f c ^ }  .%.7.9.w.w.9.7.7.&.&.$.$.&.6.6.6.8.8.9.9.9.w.w.w.w.9.&.{ g   A j.g.w A j ` ` .X.X.X",
".X.X.X.X .] 3 3 U %.r O     O 1 e t p h ! 6.7.&.%.%. . . . . .%.$.$.6.6.7.8.8.9.9.w.w.9.&.] U s 1 # .   6 A B g.x.u ! ` .X.X.X.X",
".X.X.X.X{ | v ; s } [ j       = 3 r y f ! { | | | |  .$. . .%.%.6.6.6.8.9.8.6. .^ c p , + .           6 g.A j.* > x ~ ~ .X.X.X.X",
".X.X.X.X.X| ` i 1 j v . X +   . , e y h ` | | |  . .$. .%.%.&.7.7.&.| ~ z y ; O .                     6 j.B J w r E ` .X.X.X.X.X",
".X.X.X.X.X` ] E 1 p 2 z { r     O 1 r v | |  .$. .$.%.%. .[ T h e = O                             .     % I j.4 R ~ E .X.X.X.X.X",
".X.X.X.X.X.X{ ^ v , g E E . e ,   = y ^  . . .} ^ U f 3 = .                                       S V     . > c ~ ^ .X.X.X.X.X.X",
".X.X.X.X.X.X.X[ ! j + h y e ^ Y + . p E c a 2 $ .                                             % J S c.B   X j ! ` .X.X.X.X.X.X.X",
".X.X.X.X.X.X.X.X` ! g ; 1 E v U = r . .                                                   o S V P c.I I & g ~ [ .X.X.X.X.X.X.X.X",
".X.X.X.X.X.X.X.X~ ` E h , v E 1 U 1   + .                                                 P V I S P B O g ~ { U .X.X.X.X.X.X.X.X",
".X.X.X.X.X.X.X.X.X~ ] ~ z = # p g   . E v ,                                       .       I q * h.o > z ` { E .X.X.X.X.X.X.X.X.X",
".X.X.X.X.X.X.X.X.X.X! } ] R 1 i v + y { 3 #   . #                               r b U #   5 j.f.A ; U ` } T .X.X.X.X.X.X.X.X.X.X",
".X.X.X.X.X.X.X.X.X.X.X.X| | ] s , # ^ 3 #     e s s + , .     O +   O 3 # 1 1   p p e h     o < p ~ { } .X.X.X.X.X.X.X.X.X.X.X.X",
".X.X.X.X.X.X.X.X.X.X.X.X.X} %. .E 3 1 z +     v : } g U .   1 U j $ U p ! e j   + E y j     1 b { | [ .X.X.X.X.X.X.X.X.X.X.X.X.X",
".X.X.X.X.X.X.X.X.X.X.X.X.X.X` &.&. .b 1 .   X U = U ~ Y     c , r 1 E   z 3 E ; = g h # , z ` | | ! .X.X.X.X.X.X.X.X.X.X.X.X.X.X",
".X.X.X.X.X.X.X.X.X.X.X.X.X.X.X.X{ &.&.| U y $ # $ 3 r d     g d j d U p E + g h , + e v ] |  .` .X.X.X.X.X.X.X.X.X.X.X.X.X.X.X.X",
".X.X.X.X.X.X.X.X.X.X.X.X.X.X.X.X.X.X{ ..| } ~ x y ; + O     X p f # O 3 = X = r z ! { |  .[ .X.X.X.X.X.X.X.X.X.X.X.X.X.X.X.X.X.X",
".X.X.X.X.X.X.X.X.X.X.X.X.X.X.X.X.X.X.X.X` } } [ ` ! U x g p y r r y p g c E ^ { }  .} ` .X.X.X.X.X.X.X.X.X.X.X.X.X.X.X.X.X.X.X.X",
".X.X.X.X.X.X.X.X.X.X.X.X.X.X.X.X.X.X.X.X.X.XY ~ ` ` ` ~ ~ ! ! ! ~ ^ ` ` { } } { ^ U .X.X.X.X.X.X.X.X.X.X.X.X.X.X.X.X.X.X.X.X.X.X",
".X.X.X.X.X.X.X.X.X.X.X.X.X.X.X.X.X.X.X.X.X.X.X.X.X.X.XT E ~ ~ ~ ~ ~ ~ ~ E .X.X.X.X.X.X.X.X.X.X.X.X.X.X.X.X.X.X.X.X.X.X.X.X.X.X.X"
};
